<svg id="Checked" xmlns="http://www.w3.org/2000/svg" width="24" height="24" viewBox="0 0 24 24">
    <rect id="Rectangle_17380" width="24" height="24" fill="none" />
    <g id="Iconly_Light_Tick_Square" transform="translate(-1191.904 -1048.601)">
        <g id="Tick_Square-4" transform="translate(1194.528 1050.101)">
            <g id="Stroke_1-60" transform="translate(-1195.152 -1049.601)" fill="none"
                stroke-linecap="round" stroke-linejoin="round">
                <path
                    d="M1209.214,1050.1h-9.372c-3.266,0-5.313,2.312-5.313,5.585v8.83c0,3.272,2.038,5.585,5.313,5.585h9.371c3.277,0,5.316-2.313,5.316-5.585v-8.83C1214.528,1052.414,1212.489,1050.1,1209.214,1050.1Z"
                    stroke="none" />
                <path
                    d="M 1199.841552734375 1051.601196289062 C 1197.489379882812 1051.601196289062 1196.028198242188 1053.166381835938 1196.028198242188 1055.685913085938 L 1196.028198242188 1064.516357421875 C 1196.028198242188 1065.756103515625 1196.383056640625 1066.792602539062 1197.054443359375 1067.513916015625 C 1197.716552734375 1068.225219726562 1198.680297851562 1068.601196289062 1199.841552734375 1068.601196289062 L 1209.21240234375 1068.601196289062 C 1210.374267578125 1068.601196289062 1211.338745117188 1068.22509765625 1212.001342773438 1067.513549804688 C 1212.673095703125 1066.792236328125 1213.028198242188 1065.755859375 1213.028198242188 1064.516357421875 L 1213.028198242188 1055.685913085938 C 1213.028198242188 1054.446411132812 1212.673217773438 1053.410034179688 1212.00146484375 1052.688598632812 C 1211.338989257812 1051.977172851562 1210.375 1051.601196289062 1209.213623046875 1051.601196289062 L 1199.841552734375 1051.601196289062 M 1199.841552734375 1050.101196289062 L 1209.213623046875 1050.101196289062 C 1212.489135742188 1050.101196289062 1214.528198242188 1052.41357421875 1214.528198242188 1055.685913085938 L 1214.528198242188 1064.516357421875 C 1214.528198242188 1067.78857421875 1212.489135742188 1070.101196289062 1209.21240234375 1070.101196289062 L 1199.841552734375 1070.101196289062 C 1196.56591796875 1070.101196289062 1194.528198242188 1067.78857421875 1194.528198242188 1064.516357421875 L 1194.528198242188 1055.685913085938 C 1194.528198242188 1052.41357421875 1196.57568359375 1050.101196289062 1199.841552734375 1050.101196289062 Z"
                    stroke="none" fill="#99a0b0" />
            </g>
        </g>
    </g>
</svg>
